<svg width="613" height="529" viewBox="0 0 613 529" fill="none" xmlns="http://www.w3.org/2000/svg">
<rect y="87" width="186" height="117" fill="#C4C4C4"/>
<rect y="204" width="186" height="201" fill="#808080"/>
<rect x="212" y="204" width="186" height="125" fill="#808080"/>
<rect x="427" y="204" width="186" height="325" fill="#808080"/>
<rect x="212" y="87" width="186" height="117" fill="#C4C4C4"/>
<rect width="186" height="66" fill="#4EE7E7"/>
<rect x="212" width="186" height="66" fill="#4EE7E7"/>
<path d="M77.7695 26.7891H72.2852V42H70.0469V26.7891H64.5742V24.9375H77.7695V26.7891ZM86.4531 42C86.3281 41.75 86.2266 41.3047 86.1484 40.6641C85.1406 41.7109 83.9375 42.2344 82.5391 42.2344C81.2891 42.2344 80.2617 41.8828 79.457 41.1797C78.6602 40.4688 78.2617 39.5703 78.2617 38.4844C78.2617 37.1641 78.7617 36.1406 79.7617 35.4141C80.7695 34.6797 82.1836 34.3125 84.0039 34.3125H86.1133V33.3164C86.1133 32.5586 85.8867 31.957 85.4336 31.5117C84.9805 31.0586 84.3125 30.832 83.4297 30.832C82.6562 30.832 82.0078 31.0273 81.4844 31.418C80.9609 31.8086 80.6992 32.2812 80.6992 32.8359H78.5195C78.5195 32.2031 78.7422 31.5938 79.1875 31.0078C79.6406 30.4141 80.25 29.9453 81.0156 29.6016C81.7891 29.2578 82.6367 29.0859 83.5586 29.0859C85.0195 29.0859 86.1641 29.4531 86.9922 30.1875C87.8203 30.9141 88.25 31.918 88.2812 33.1992V39.0352C88.2812 40.1992 88.4297 41.125 88.7266 41.8125V42H86.4531ZM82.8555 40.3477C83.5352 40.3477 84.1797 40.1719 84.7891 39.8203C85.3984 39.4688 85.8398 39.0117 86.1133 38.4492V35.8477H84.4141C81.7578 35.8477 80.4297 36.625 80.4297 38.1797C80.4297 38.8594 80.6562 39.3906 81.1094 39.7734C81.5625 40.1562 82.1445 40.3477 82.8555 40.3477ZM91.1641 35.5547C91.1641 33.5781 91.6211 32.0078 92.5352 30.8438C93.4492 29.6719 94.6602 29.0859 96.168 29.0859C97.7148 29.0859 98.9219 29.6328 99.7891 30.7266L99.8945 29.3203H101.875V41.6953C101.875 43.3359 101.387 44.6289 100.41 45.5742C99.4414 46.5195 98.1367 46.9922 96.4961 46.9922C95.582 46.9922 94.6875 46.7969 93.8125 46.4062C92.9375 46.0156 92.2695 45.4805 91.8086 44.8008L92.9336 43.5C93.8633 44.6484 95 45.2227 96.3438 45.2227C97.3984 45.2227 98.2188 44.9258 98.8047 44.332C99.3984 43.7383 99.6953 42.9023 99.6953 41.8242V40.7344C98.8281 41.7344 97.6445 42.2344 96.1445 42.2344C94.6602 42.2344 93.457 41.6367 92.5352 40.4414C91.6211 39.2461 91.1641 37.6172 91.1641 35.5547ZM93.3438 35.8008C93.3438 37.2305 93.6367 38.3555 94.2227 39.1758C94.8086 39.9883 95.6289 40.3945 96.6836 40.3945C98.0508 40.3945 99.0547 39.7734 99.6953 38.5312V32.7422C99.0312 31.5312 98.0352 30.9258 96.707 30.9258C95.6523 30.9258 94.8281 31.3359 94.2344 32.1562C93.6406 32.9766 93.3438 34.1914 93.3438 35.8008ZM118.012 42H115.832V27.5508L111.461 29.1562V27.1875L117.672 24.8555H118.012V42Z" fill="black"/>
<path d="M289.77 26.7891H284.285V42H282.047V26.7891H276.574V24.9375H289.77V26.7891ZM298.453 42C298.328 41.75 298.227 41.3047 298.148 40.6641C297.141 41.7109 295.938 42.2344 294.539 42.2344C293.289 42.2344 292.262 41.8828 291.457 41.1797C290.66 40.4688 290.262 39.5703 290.262 38.4844C290.262 37.1641 290.762 36.1406 291.762 35.4141C292.77 34.6797 294.184 34.3125 296.004 34.3125H298.113V33.3164C298.113 32.5586 297.887 31.957 297.434 31.5117C296.98 31.0586 296.312 30.832 295.43 30.832C294.656 30.832 294.008 31.0273 293.484 31.418C292.961 31.8086 292.699 32.2812 292.699 32.8359H290.52C290.52 32.2031 290.742 31.5938 291.188 31.0078C291.641 30.4141 292.25 29.9453 293.016 29.6016C293.789 29.2578 294.637 29.0859 295.559 29.0859C297.02 29.0859 298.164 29.4531 298.992 30.1875C299.82 30.9141 300.25 31.918 300.281 33.1992V39.0352C300.281 40.1992 300.43 41.125 300.727 41.8125V42H298.453ZM294.855 40.3477C295.535 40.3477 296.18 40.1719 296.789 39.8203C297.398 39.4688 297.84 39.0117 298.113 38.4492V35.8477H296.414C293.758 35.8477 292.43 36.625 292.43 38.1797C292.43 38.8594 292.656 39.3906 293.109 39.7734C293.562 40.1562 294.145 40.3477 294.855 40.3477ZM303.164 35.5547C303.164 33.5781 303.621 32.0078 304.535 30.8438C305.449 29.6719 306.66 29.0859 308.168 29.0859C309.715 29.0859 310.922 29.6328 311.789 30.7266L311.895 29.3203H313.875V41.6953C313.875 43.3359 313.387 44.6289 312.41 45.5742C311.441 46.5195 310.137 46.9922 308.496 46.9922C307.582 46.9922 306.688 46.7969 305.812 46.4062C304.938 46.0156 304.27 45.4805 303.809 44.8008L304.934 43.5C305.863 44.6484 307 45.2227 308.344 45.2227C309.398 45.2227 310.219 44.9258 310.805 44.332C311.398 43.7383 311.695 42.9023 311.695 41.8242V40.7344C310.828 41.7344 309.645 42.2344 308.145 42.2344C306.66 42.2344 305.457 41.6367 304.535 40.4414C303.621 39.2461 303.164 37.6172 303.164 35.5547ZM305.344 35.8008C305.344 37.2305 305.637 38.3555 306.223 39.1758C306.809 39.9883 307.629 40.3945 308.684 40.3945C310.051 40.3945 311.055 39.7734 311.695 38.5312V32.7422C311.031 31.5312 310.035 30.9258 308.707 30.9258C307.652 30.9258 306.828 31.3359 306.234 32.1562C305.641 32.9766 305.344 34.1914 305.344 35.8008ZM334.066 42H322.887V40.4414L328.793 33.8789C329.668 32.8867 330.27 32.082 330.598 31.4648C330.934 30.8398 331.102 30.1953 331.102 29.5312C331.102 28.6406 330.832 27.9102 330.293 27.3398C329.754 26.7695 329.035 26.4844 328.137 26.4844C327.059 26.4844 326.219 26.793 325.617 27.4102C325.023 28.0195 324.727 28.8711 324.727 29.9648H322.559C322.559 28.3945 323.062 27.125 324.07 26.1562C325.086 25.1875 326.441 24.7031 328.137 24.7031C329.723 24.7031 330.977 25.1211 331.898 25.957C332.82 26.7852 333.281 27.8906 333.281 29.2734C333.281 30.9531 332.211 32.9531 330.07 35.2734L325.5 40.2305H334.066V42Z" fill="black"/>
<path d="M18.3945 117H16.1445V99.9375H18.3945V117ZM22.5195 117V99.9375H27.3359C28.8203 99.9375 30.1328 100.266 31.2734 100.922C32.4141 101.578 33.293 102.512 33.9102 103.723C34.5352 104.934 34.8516 106.324 34.8594 107.895V108.984C34.8594 110.594 34.5469 112.004 33.9219 113.215C33.3047 114.426 32.418 115.355 31.2617 116.004C30.1133 116.652 28.7734 116.984 27.2422 117H22.5195ZM24.7695 101.789V115.16H27.1367C28.8711 115.16 30.2188 114.621 31.1797 113.543C32.1484 112.465 32.6328 110.93 32.6328 108.938V107.941C32.6328 106.004 32.1758 104.5 31.2617 103.43C30.3555 102.352 29.0664 101.805 27.3945 101.789H24.7695ZM47.9141 109.113H40.5195V115.16H49.1094V117H38.2695V99.9375H48.9922V101.789H40.5195V107.273H47.9141V109.113ZM65.0234 117H62.7617L54.1719 103.852V117H51.9102V99.9375H54.1719L62.7852 113.145V99.9375H65.0234V117ZM80.457 101.789H74.9727V117H72.7344V101.789H67.2617V99.9375H80.457V101.789ZM85.4023 117H83.1523V99.9375H85.4023V117ZM98.9375 109.465H91.7773V117H89.5273V99.9375H100.098V101.789H91.7773V107.625H98.9375V109.465ZM105.207 117H102.957V99.9375H105.207V117ZM118.977 109.113H111.582V115.16H120.172V117H109.332V99.9375H120.055V101.789H111.582V107.273H118.977V109.113ZM129.23 110.098H125.223V117H122.961V99.9375H128.609C130.531 99.9375 132.008 100.375 133.039 101.25C134.078 102.125 134.598 103.398 134.598 105.07C134.598 106.133 134.309 107.059 133.73 107.848C133.16 108.637 132.363 109.227 131.34 109.617L135.348 116.859V117H132.934L129.23 110.098ZM125.223 108.258H128.68C129.797 108.258 130.684 107.969 131.34 107.391C132.004 106.812 132.336 106.039 132.336 105.07C132.336 104.016 132.02 103.207 131.387 102.645C130.762 102.082 129.855 101.797 128.668 101.789H125.223V108.258Z" fill="black"/>
<path d="M231.395 117H229.145V99.9375H231.395V117ZM235.52 117V99.9375H240.336C241.82 99.9375 243.133 100.266 244.273 100.922C245.414 101.578 246.293 102.512 246.91 103.723C247.535 104.934 247.852 106.324 247.859 107.895V108.984C247.859 110.594 247.547 112.004 246.922 113.215C246.305 114.426 245.418 115.355 244.262 116.004C243.113 116.652 241.773 116.984 240.242 117H235.52ZM237.77 101.789V115.16H240.137C241.871 115.16 243.219 114.621 244.18 113.543C245.148 112.465 245.633 110.93 245.633 108.938V107.941C245.633 106.004 245.176 104.5 244.262 103.43C243.355 102.352 242.066 101.805 240.395 101.789H237.77ZM260.914 109.113H253.52V115.16H262.109V117H251.27V99.9375H261.992V101.789H253.52V107.273H260.914V109.113ZM278.023 117H275.762L267.172 103.852V117H264.91V99.9375H267.172L275.785 113.145V99.9375H278.023V117ZM293.457 101.789H287.973V117H285.734V101.789H280.262V99.9375H293.457V101.789ZM298.402 117H296.152V99.9375H298.402V117ZM311.938 109.465H304.777V117H302.527V99.9375H313.098V101.789H304.777V107.625H311.938V109.465ZM318.207 117H315.957V99.9375H318.207V117ZM331.977 109.113H324.582V115.16H333.172V117H322.332V99.9375H333.055V101.789H324.582V107.273H331.977V109.113ZM342.23 110.098H338.223V117H335.961V99.9375H341.609C343.531 99.9375 345.008 100.375 346.039 101.25C347.078 102.125 347.598 103.398 347.598 105.07C347.598 106.133 347.309 107.059 346.73 107.848C346.16 108.637 345.363 109.227 344.34 109.617L348.348 116.859V117H345.934L342.23 110.098ZM338.223 108.258H341.68C342.797 108.258 343.684 107.969 344.34 107.391C345.004 106.812 345.336 106.039 345.336 105.07C345.336 104.016 345.02 103.207 344.387 102.645C343.762 102.082 342.855 101.797 341.668 101.789H338.223V108.258Z" fill="black"/>
<path d="M30.0938 168H27.832L19.2422 154.852V168H16.9805V150.938H19.2422L27.8555 164.145V150.938H30.0938V168ZM43.7344 160.113H36.3398V166.16H44.9297V168H34.0898V150.938H44.8125V152.789H36.3398V158.273H43.7344V160.113ZM53.2969 157.477L57.3867 150.938H60.0352L54.6445 159.398L60.1641 168H57.4922L53.2969 161.344L49.0781 168H46.418L51.9492 159.398L46.5469 150.938H49.1836L53.2969 157.477ZM74.5664 152.789H69.082V168H66.8438V152.789H61.3711V150.938H74.5664V152.789Z" fill="black"/>
<path d="M64.9805 304V286.938H69.7969C71.2812 286.938 72.5938 287.266 73.7344 287.922C74.875 288.578 75.7539 289.512 76.3711 290.723C76.9961 291.934 77.3125 293.324 77.3203 294.895V295.984C77.3203 297.594 77.0078 299.004 76.3828 300.215C75.7656 301.426 74.8789 302.355 73.7227 303.004C72.5742 303.652 71.2344 303.984 69.7031 304H64.9805ZM67.2305 288.789V302.16H69.5977C71.332 302.16 72.6797 301.621 73.6406 300.543C74.6094 299.465 75.0938 297.93 75.0938 295.938V294.941C75.0938 293.004 74.6367 291.5 73.7227 290.43C72.8164 289.352 71.5273 288.805 69.8555 288.789H67.2305ZM89.8945 299.547H82.7461L81.1406 304H78.8203L85.3359 286.938H87.3047L93.832 304H91.5234L89.8945 299.547ZM83.4258 297.695H89.2266L86.3203 289.715L83.4258 297.695ZM106.395 288.789H100.91V304H98.6719V288.789H93.1992V286.938H106.395V288.789ZM117.41 299.547H110.262L108.656 304H106.336L112.852 286.938H114.82L121.348 304H119.039L117.41 299.547ZM110.941 297.695H116.742L113.836 289.715L110.941 297.695Z" fill="black"/>
<path d="M277.98 275V257.938H282.797C284.281 257.938 285.594 258.266 286.734 258.922C287.875 259.578 288.754 260.512 289.371 261.723C289.996 262.934 290.312 264.324 290.32 265.895V266.984C290.32 268.594 290.008 270.004 289.383 271.215C288.766 272.426 287.879 273.355 286.723 274.004C285.574 274.652 284.234 274.984 282.703 275H277.98ZM280.23 259.789V273.16H282.598C284.332 273.16 285.68 272.621 286.641 271.543C287.609 270.465 288.094 268.93 288.094 266.938V265.941C288.094 264.004 287.637 262.5 286.723 261.43C285.816 260.352 284.527 259.805 282.855 259.789H280.23ZM302.895 270.547H295.746L294.141 275H291.82L298.336 257.938H300.305L306.832 275H304.523L302.895 270.547ZM296.426 268.695H302.227L299.32 260.715L296.426 268.695ZM319.395 259.789H313.91V275H311.672V259.789H306.199V257.938H319.395V259.789ZM330.41 270.547H323.262L321.656 275H319.336L325.852 257.938H327.82L334.348 275H332.039L330.41 270.547ZM323.941 268.695H329.742L326.836 260.715L323.941 268.695Z" fill="black"/>
<path d="M277.98 275V257.938H282.797C284.281 257.938 285.594 258.266 286.734 258.922C287.875 259.578 288.754 260.512 289.371 261.723C289.996 262.934 290.312 264.324 290.32 265.895V266.984C290.32 268.594 290.008 270.004 289.383 271.215C288.766 272.426 287.879 273.355 286.723 274.004C285.574 274.652 284.234 274.984 282.703 275H277.98ZM280.23 259.789V273.16H282.598C284.332 273.16 285.68 272.621 286.641 271.543C287.609 270.465 288.094 268.93 288.094 266.938V265.941C288.094 264.004 287.637 262.5 286.723 261.43C285.816 260.352 284.527 259.805 282.855 259.789H280.23ZM302.895 270.547H295.746L294.141 275H291.82L298.336 257.938H300.305L306.832 275H304.523L302.895 270.547ZM296.426 268.695H302.227L299.32 260.715L296.426 268.695ZM319.395 259.789H313.91V275H311.672V259.789H306.199V257.938H319.395V259.789ZM330.41 270.547H323.262L321.656 275H319.336L325.852 257.938H327.82L334.348 275H332.039L330.41 270.547ZM323.941 268.695H329.742L326.836 260.715L323.941 268.695Z" fill="black"/>
<path d="M491.98 375V357.938H496.797C498.281 357.938 499.594 358.266 500.734 358.922C501.875 359.578 502.754 360.512 503.371 361.723C503.996 362.934 504.312 364.324 504.32 365.895V366.984C504.32 368.594 504.008 370.004 503.383 371.215C502.766 372.426 501.879 373.355 500.723 374.004C499.574 374.652 498.234 374.984 496.703 375H491.98ZM494.23 359.789V373.16H496.598C498.332 373.16 499.68 372.621 500.641 371.543C501.609 370.465 502.094 368.93 502.094 366.938V365.941C502.094 364.004 501.637 362.5 500.723 361.43C499.816 360.352 498.527 359.805 496.855 359.789H494.23ZM516.895 370.547H509.746L508.141 375H505.82L512.336 357.938H514.305L520.832 375H518.523L516.895 370.547ZM510.426 368.695H516.227L513.32 360.715L510.426 368.695ZM533.395 359.789H527.91V375H525.672V359.789H520.199V357.938H533.395V359.789ZM544.41 370.547H537.262L535.656 375H533.336L539.852 357.938H541.82L548.348 375H546.039L544.41 370.547ZM537.941 368.695H543.742L540.836 360.715L537.941 368.695Z" fill="black"/>
<path d="M242.094 168H239.832L231.242 154.852V168H228.98V150.938H231.242L239.855 164.145V150.938H242.094V168ZM255.734 160.113H248.34V166.16H256.93V168H246.09V150.938H256.812V152.789H248.34V158.273H255.734V160.113ZM265.297 157.477L269.387 150.938H272.035L266.645 159.398L272.164 168H269.492L265.297 161.344L261.078 168H258.418L263.949 159.398L258.547 150.938H261.184L265.297 157.477ZM286.566 152.789H281.082V168H278.844V152.789H273.371V150.938H286.566V152.789Z" fill="black"/>
<path d="M212.95 87.3135C213.123 86.7891 212.838 86.2236 212.314 86.0504L203.767 83.2286C203.243 83.0554 202.677 83.3402 202.504 83.8646C202.331 84.389 202.616 84.9546 203.14 85.1277L210.737 87.636L208.229 95.2326C208.055 95.7571 208.34 96.3226 208.865 96.4958C209.389 96.6689 209.955 96.3842 210.128 95.8597L212.95 87.3135ZM71.4497 158.893L212.45 87.8932L211.55 86.1068L70.5503 157.107L71.4497 158.893Z" fill="black"/>
<rect x="427" y="87" width="186" height="117" fill="#C4C4C4"/>
<rect x="427" width="186" height="66" fill="#4EE7E7"/>
<path d="M504.77 26.7891H499.285V42H497.047V26.7891H491.574V24.9375H504.77V26.7891ZM513.453 42C513.328 41.75 513.227 41.3047 513.148 40.6641C512.141 41.7109 510.938 42.2344 509.539 42.2344C508.289 42.2344 507.262 41.8828 506.457 41.1797C505.66 40.4688 505.262 39.5703 505.262 38.4844C505.262 37.1641 505.762 36.1406 506.762 35.4141C507.77 34.6797 509.184 34.3125 511.004 34.3125H513.113V33.3164C513.113 32.5586 512.887 31.957 512.434 31.5117C511.98 31.0586 511.312 30.832 510.43 30.832C509.656 30.832 509.008 31.0273 508.484 31.418C507.961 31.8086 507.699 32.2812 507.699 32.8359H505.52C505.52 32.2031 505.742 31.5938 506.188 31.0078C506.641 30.4141 507.25 29.9453 508.016 29.6016C508.789 29.2578 509.637 29.0859 510.559 29.0859C512.02 29.0859 513.164 29.4531 513.992 30.1875C514.82 30.9141 515.25 31.918 515.281 33.1992V39.0352C515.281 40.1992 515.43 41.125 515.727 41.8125V42H513.453ZM509.855 40.3477C510.535 40.3477 511.18 40.1719 511.789 39.8203C512.398 39.4688 512.84 39.0117 513.113 38.4492V35.8477H511.414C508.758 35.8477 507.43 36.625 507.43 38.1797C507.43 38.8594 507.656 39.3906 508.109 39.7734C508.562 40.1562 509.145 40.3477 509.855 40.3477ZM518.164 35.5547C518.164 33.5781 518.621 32.0078 519.535 30.8438C520.449 29.6719 521.66 29.0859 523.168 29.0859C524.715 29.0859 525.922 29.6328 526.789 30.7266L526.895 29.3203H528.875V41.6953C528.875 43.3359 528.387 44.6289 527.41 45.5742C526.441 46.5195 525.137 46.9922 523.496 46.9922C522.582 46.9922 521.688 46.7969 520.812 46.4062C519.938 46.0156 519.27 45.4805 518.809 44.8008L519.934 43.5C520.863 44.6484 522 45.2227 523.344 45.2227C524.398 45.2227 525.219 44.9258 525.805 44.332C526.398 43.7383 526.695 42.9023 526.695 41.8242V40.7344C525.828 41.7344 524.645 42.2344 523.145 42.2344C521.66 42.2344 520.457 41.6367 519.535 40.4414C518.621 39.2461 518.164 37.6172 518.164 35.5547ZM520.344 35.8008C520.344 37.2305 520.637 38.3555 521.223 39.1758C521.809 39.9883 522.629 40.3945 523.684 40.3945C525.051 40.3945 526.055 39.7734 526.695 38.5312V32.7422C526.031 31.5312 525.035 30.9258 523.707 30.9258C522.652 30.9258 521.828 31.3359 521.234 32.1562C520.641 32.9766 520.344 34.1914 520.344 35.8008ZM541.039 32.4141H542.668C543.691 32.3984 544.496 32.1289 545.082 31.6055C545.668 31.082 545.961 30.375 545.961 29.4844C545.961 27.4844 544.965 26.4844 542.973 26.4844C542.035 26.4844 541.285 26.7539 540.723 27.293C540.168 27.8242 539.891 28.5312 539.891 29.4141H537.723C537.723 28.0625 538.215 26.9414 539.199 26.0508C540.191 25.1523 541.449 24.7031 542.973 24.7031C544.582 24.7031 545.844 25.1289 546.758 25.9805C547.672 26.832 548.129 28.0156 548.129 29.5312C548.129 30.2734 547.887 30.9922 547.402 31.6875C546.926 32.3828 546.273 32.9023 545.445 33.2461C546.383 33.543 547.105 34.0352 547.613 34.7227C548.129 35.4102 548.387 36.25 548.387 37.2422C548.387 38.7734 547.887 39.9883 546.887 40.8867C545.887 41.7852 544.586 42.2344 542.984 42.2344C541.383 42.2344 540.078 41.8008 539.07 40.9336C538.07 40.0664 537.57 38.9219 537.57 37.5H539.75C539.75 38.3984 540.043 39.1172 540.629 39.6562C541.215 40.1953 542 40.4648 542.984 40.4648C544.031 40.4648 544.832 40.1914 545.387 39.6445C545.941 39.0977 546.219 38.3125 546.219 37.2891C546.219 36.2969 545.914 35.5352 545.305 35.0039C544.695 34.4727 543.816 34.1992 542.668 34.1836H541.039V32.4141Z" fill="black"/>
<path d="M457.094 168H454.832L446.242 154.852V168H443.98V150.938H446.242L454.855 164.145V150.938H457.094V168ZM470.734 160.113H463.34V166.16H471.93V168H461.09V150.938H471.812V152.789H463.34V158.273H470.734V160.113ZM480.297 157.477L484.387 150.938H487.035L481.645 159.398L487.164 168H484.492L480.297 161.344L476.078 168H473.418L478.949 159.398L473.547 150.938H476.184L480.297 157.477ZM501.566 152.789H496.082V168H493.844V152.789H488.371V150.938H501.566V152.789ZM519.156 158.461H509.383V156.574H519.156V158.461ZM519.156 163.324H509.383V161.449H519.156V163.324ZM538.844 160.723C538.844 163.262 538.41 165.148 537.543 166.383C536.676 167.617 535.32 168.234 533.477 168.234C531.656 168.234 530.309 167.633 529.434 166.43C528.559 165.219 528.105 163.414 528.074 161.016V158.121C528.074 155.613 528.508 153.75 529.375 152.531C530.242 151.312 531.602 150.703 533.453 150.703C535.289 150.703 536.641 151.293 537.508 152.473C538.375 153.645 538.82 155.457 538.844 157.91V160.723ZM536.676 157.758C536.676 155.922 536.418 154.586 535.902 153.75C535.387 152.906 534.57 152.484 533.453 152.484C532.344 152.484 531.535 152.902 531.027 153.738C530.52 154.574 530.258 155.859 530.242 157.594V161.062C530.242 162.906 530.508 164.27 531.039 165.152C531.578 166.027 532.391 166.465 533.477 166.465C534.547 166.465 535.34 166.051 535.855 165.223C536.379 164.395 536.652 163.09 536.676 161.309V157.758Z" fill="black"/>
<path d="M427.95 87.3135C428.123 86.7891 427.838 86.2236 427.314 86.0504L418.767 83.2286C418.243 83.0554 417.677 83.3402 417.504 83.8646C417.331 84.389 417.616 84.9546 418.14 85.1277L425.737 87.636L423.229 95.2326C423.055 95.7571 423.34 96.3226 423.865 96.4958C424.389 96.6689 424.955 96.3842 425.128 95.8597L427.95 87.3135ZM286.45 158.893L427.45 87.8932L426.55 86.1068L285.55 157.107L286.45 158.893Z" fill="black"/>
<path d="M446.395 117H444.145V99.9375H446.395V117ZM450.52 117V99.9375H455.336C456.82 99.9375 458.133 100.266 459.273 100.922C460.414 101.578 461.293 102.512 461.91 103.723C462.535 104.934 462.852 106.324 462.859 107.895V108.984C462.859 110.594 462.547 112.004 461.922 113.215C461.305 114.426 460.418 115.355 459.262 116.004C458.113 116.652 456.773 116.984 455.242 117H450.52ZM452.77 101.789V115.16H455.137C456.871 115.16 458.219 114.621 459.18 113.543C460.148 112.465 460.633 110.93 460.633 108.938V107.941C460.633 106.004 460.176 104.5 459.262 103.43C458.355 102.352 457.066 101.805 455.395 101.789H452.77ZM475.914 109.113H468.52V115.16H477.109V117H466.27V99.9375H476.992V101.789H468.52V107.273H475.914V109.113ZM493.023 117H490.762L482.172 103.852V117H479.91V99.9375H482.172L490.785 113.145V99.9375H493.023V117ZM508.457 101.789H502.973V117H500.734V101.789H495.262V99.9375H508.457V101.789ZM513.402 117H511.152V99.9375H513.402V117ZM526.938 109.465H519.777V117H517.527V99.9375H528.098V101.789H519.777V107.625H526.938V109.465ZM533.207 117H530.957V99.9375H533.207V117ZM546.977 109.113H539.582V115.16H548.172V117H537.332V99.9375H548.055V101.789H539.582V107.273H546.977V109.113ZM557.23 110.098H553.223V117H550.961V99.9375H556.609C558.531 99.9375 560.008 100.375 561.039 101.25C562.078 102.125 562.598 103.398 562.598 105.07C562.598 106.133 562.309 107.059 561.73 107.848C561.16 108.637 560.363 109.227 559.34 109.617L563.348 116.859V117H560.934L557.23 110.098ZM553.223 108.258H556.68C557.797 108.258 558.684 107.969 559.34 107.391C560.004 106.812 560.336 106.039 560.336 105.07C560.336 104.016 560.02 103.207 559.387 102.645C558.762 102.082 557.855 101.797 556.668 101.789H553.223V108.258Z" fill="black"/>
</svg>
